<?xml version="1.0" encoding="UTF-8" standalone="no"?>
<!-- Created with Inkscape (http://www.inkscape.org/) -->

<svg
   xmlns:dc="http://purl.org/dc/elements/1.1/"
   xmlns:cc="http://creativecommons.org/ns#"
   xmlns:rdf="http://www.w3.org/1999/02/22-rdf-syntax-ns#"
   xmlns:svg="http://www.w3.org/2000/svg"
   xmlns="http://www.w3.org/2000/svg"
   version="1.1"
   width="25"
   height="25"
   viewBox = "0 0 25 25"
   id="svg2">
  <defs
     id="defs4" />
  <metadata
     id="metadata7">
    <rdf:RDF>
      <cc:Work
         rdf:about="">
        <dc:format>image/svg+xml</dc:format>
        <dc:type
           rdf:resource="http://purl.org/dc/dcmitype/StillImage" />
        <dc:title></dc:title>
      </cc:Work>
    </rdf:RDF>
  </metadata>
  <g
     transform="translate(-94.894358,-507.94632)"
     id="layer1">
    <path
       d="m 99.49966,516.47789 c 1.7278,-0.006 3.45616,-10e-4 5.18195,0.0633 1.10122,0.0585 7.45232,0.34313 8.55661,0.31644"
       id="path3932"
       style="fill:#ffffff;fill-opacity:1;fill-rule:nonzero;stroke:#ffffff;stroke-width:2.49435091;stroke-linejoin:round;stroke-miterlimit:4;stroke-opacity:1;stroke-dasharray:none" />
    <path
       d="m 102.5,510 c -1.00114,0.0862 -1.96896,0.65161 -2.555448,1.46415 -0.627424,0.87586 -1.225162,1.78461 -1.632052,2.78585 -0.31099,0.94842 -0.546437,1.9229 -0.741424,2.90015 -0.128498,0.98355 -0.227672,1.98163 -0.08397,2.96923 0.185713,1.57671 0.237427,3.17481 0.606645,4.72437 0.467479,1.37301 0.950214,2.76192 1.729833,3.99351 0.481067,0.76398 1.412867,1.04836 2.251417,1.2137 1.47937,0.19096 2.9712,0.27667 4.45625,0.41779 1.3763,-0.0196 2.75064,0.0655 4.125,0.125 1.41519,-0.17481 2.88289,-0.34144 4.15625,-1.03125 0.79496,-0.45955 1.29377,-1.23347 1.60101,-2.07702 0.49818,-1.28168 0.75012,-2.64225 1.02399,-3.98548 0.17305,-1.03332 0.20477,-2.10428 -0.12031,-3.11093 -0.35236,-1.07671 -0.64459,-2.17472 -1.0125,-3.24531 -0.40776,-0.92686 -0.70746,-1.92231 -1.30098,-2.75195 -0.65968,-0.77976 -1.36057,-1.52302 -2.12059,-2.20648 -0.71838,-0.66069 -1.65938,-1.02778 -2.57664,-1.32303 -1.3375,-0.4279 -2.74988,-0.51038 -4.13217,-0.70954 C 104.95715,510.00256 103.72547,509.92012 102.5,510 z"
       id="path3935"
       style="fill:none;stroke:#ffffff;stroke-width:1.33565271;stroke-linejoin:round;stroke-miterlimit:4;stroke-opacity:1;stroke-dasharray:none" />
    <path
       d="m 100.45131,525.17256 c 1.7278,-0.006 3.45616,-10e-4 5.18195,0.0633 1.10122,0.0585 4.87853,-0.0678 5.98282,-0.0945"
       id="path2984"
       style="fill:#ffffff;fill-opacity:1;fill-rule:nonzero;stroke:#ffffff;stroke-width:2.49435091;stroke-linejoin:round;stroke-miterlimit:4;stroke-opacity:1;stroke-dasharray:none" />
    <path
       d="m 99.564539,520.89011 c 1.091851,-0.006 2.184051,-0.001 3.274631,0.0633 0.69589,0.0585 3.08288,-0.0678 3.78072,-0.0945"
       id="path2986"
       style="fill:#ffffff;fill-opacity:1;fill-rule:nonzero;stroke:#ffffff;stroke-width:2.49435091;stroke-linejoin:round;stroke-miterlimit:4;stroke-opacity:1;stroke-dasharray:none" />
  </g>
</svg>
